# xmcd
# 
# Track frame offsets:
#     150
#     30815
#     66744
#     99151
#     133236
#     166895
#     213182
#     248143
#     288988
# 
# Disc length: 4323
# 
# Revision: 0
# Processed by: cddbd v1.5.2PL0 Copyright (c) Steve Scherf et al.
# Submitted via: fre:ac v1.0.17
# 
DISCID=7910e109
DTITLE=Jakob Fischer - Martin Schack - Casper Mikkelsen - Blues
DYEAR=2010
DGENRE=Blues
TTITLE0=The squeaking door
TTITLE1=Bluesette
TTITLE2=Out of the night
TTITLE3=Crocodility
TTITLE4=Born to be blue
TTITLE5=The everyday blues
TTITLE6=Wave
TTITLE7=Banks
TTITLE8=Here and now
EXTD=Recorded live at La Fontaine May 13-15, 2010
EXTT0=
EXTT1=
EXTT2=
EXTT3=
EXTT4=
EXTT5=
EXTT6=
EXTT7=
EXTT8=
PLAYORDER=
